<svg width="96" height="96" viewBox="0 0 96 96" fill="none" xmlns="http://www.w3.org/2000/svg">
<path d="M16.6007 42.0284C15.8621 41.2066 14.597 41.1398 13.7764 41.8788C12.9549 42.6169 12.8878 43.882 13.6264 44.7031C13.8862 44.9916 14.1583 45.2789 14.4358 45.5568C14.8264 45.947 15.3382 46.1423 15.8503 46.1423C16.3622 46.1423 16.8737 45.9471 17.2642 45.5568C18.0454 44.7756 18.0454 43.5091 17.2642 42.7281C17.0366 42.5003 16.8131 42.2646 16.6007 42.0284Z" fill="#3EC283"/>
<path d="M14.4359 14.4434C11.2137 17.6656 9.09851 21.7342 8.31945 26.2096C7.55801 30.5827 8.11751 35.0245 9.93626 39.0543C10.2702 39.7942 10.9985 40.2322 11.7605 40.2322C12.0355 40.2322 12.3151 40.1752 12.5819 40.0544C13.5886 39.6003 14.0365 38.4159 13.5818 37.4086C10.5209 30.6273 12.001 22.5352 17.2643 17.272C18.0455 16.4909 18.0455 15.2249 17.2643 14.4434C16.4834 13.6628 15.2174 13.6627 14.4359 14.4434Z" fill="#3EC283"/>
<path d="M50.0489 20.9455C49.5948 19.9388 48.4103 19.4914 47.4031 19.945C46.3964 20.3991 45.9485 21.5839 46.4026 22.5908C49.4631 29.3725 47.983 37.4651 42.7201 42.7279C41.9393 43.5086 41.9393 44.775 42.7201 45.5565C43.1106 45.9467 43.6225 46.1421 44.1346 46.1421C44.6465 46.1421 45.158 45.9469 45.5485 45.5565C48.7711 42.334 50.8859 38.2654 51.6652 33.7903C52.4264 29.4175 51.8678 24.9756 50.0489 20.9455Z" fill="#3EC283"/>
<path d="M43.3841 17.9719C43.7791 18.4109 44.3242 18.6346 44.8717 18.6346C45.3483 18.6346 45.8262 18.4654 46.2086 18.1218C47.03 17.3836 47.0971 16.1185 46.3586 15.2974C46.0953 15.0044 45.8225 14.7171 45.548 14.4432C44.7663 13.6628 43.5003 13.6639 42.7198 14.4456C41.9394 15.2273 41.9401 16.4933 42.7218 17.2739C42.9455 17.4974 43.1686 17.7321 43.3841 17.9719Z" fill="#3EC283"/>
<path d="M94.8231 83.5176L69.6049 58.2988C69.6032 58.2973 69.6021 58.2956 69.601 58.2947C69.5993 58.2932 69.5978 58.2919 69.5967 58.2904L64.2255 52.9198C63.4716 52.1655 62.4674 51.7502 61.3973 51.7502C61.0433 51.7502 60.6985 51.7999 60.3657 51.8878L55.0219 46.5439C62.7212 34.902 61.4498 19.0311 51.2055 8.787C45.5393 3.12075 38.0055 0 29.9922 0C21.9786 0 14.4452 3.12075 8.77916 8.78662C-2.91727 20.4834 -2.91727 39.5158 8.77916 51.2132C14.4452 56.8792 21.9788 59.9996 29.9922 59.9996C35.9669 59.9996 41.6744 58.2639 46.5407 55.0327L51.8802 60.3726C51.7924 60.7054 51.7425 61.0508 51.7425 61.4042C51.7425 62.4743 52.1577 63.4789 52.9114 64.2324L58.2833 69.6043C58.285 69.606 58.2857 69.6071 58.2872 69.6084C58.2883 69.6096 58.29 69.6109 58.2912 69.612L83.5097 94.8306C84.2637 95.5845 85.2683 95.9998 86.3383 95.9998C87.408 95.9998 88.4127 95.5847 89.1666 94.8302L94.8233 89.1735C95.5774 88.4196 95.9929 87.4149 95.9929 86.3445C95.9927 85.2744 95.577 84.2704 94.8231 83.5176ZM48.3568 48.4043C43.4483 53.3023 36.9276 55.9997 29.9924 55.9997C23.0474 55.9997 16.5182 53.2954 11.6076 48.3848C1.47023 38.247 1.47023 21.7524 11.6076 11.6153C16.5182 6.70463 23.0474 3.99994 29.9922 3.99994C36.9368 3.99994 43.4661 6.70463 48.3771 11.6153C58.5079 21.7457 58.5145 38.226 48.3962 48.3652L48.3568 48.4043ZM49.7914 52.6273L51.1813 51.2368C51.1896 51.2289 51.1977 51.2212 51.2055 51.2134C51.2134 51.2055 51.2207 51.1978 51.2286 51.1899L52.6197 49.7985L57.1545 54.3337L54.3263 57.162L49.7914 52.6273ZM55.7404 61.4044L61.3971 55.7481L65.358 59.709L59.7017 65.3657L55.7404 61.4044ZM86.3434 91.9991C86.3427 91.9995 86.3406 91.9999 86.3383 91.9999V92.0023L62.5303 68.1943L68.1867 62.5373L91.995 86.3449L86.3434 91.9991Z" fill="#3EC283"/>
</svg>
