<svg width="96" height="96" viewBox="0 0 96 96" fill="none" xmlns="http://www.w3.org/2000/svg">
<path d="M85.9999 16.9997C79.7576 16.9997 75.0202 13.3464 70.0039 9.47925C64.2411 5.03606 57.7095 0 48 0C38.2905 0 31.7589 5.03606 25.9958 9.47925C20.9798 13.3464 16.2422 16.9997 9.99994 16.9997C8.89575 16.9997 7.99988 17.8952 7.99988 18.9998C7.99988 42.3519 10.9082 57.9013 17.43 69.4174C23.9059 80.8526 33.5458 87.9643 46.9999 95.7321C47.3093 95.9108 47.6544 96 47.9998 96C48.3452 96 48.6904 95.9106 48.9998 95.7321C62.454 87.9643 72.0938 80.8528 78.57 69.4174C85.0914 57.9013 87.9998 42.3519 87.9998 18.9998C87.9999 17.8952 87.1041 16.9997 85.9999 16.9997ZM48 91.6875C23.8751 77.6199 12.3223 65.5009 12.0068 20.8993C18.5963 20.2354 23.5924 16.3832 28.4385 12.6469C33.9519 8.39606 39.6534 3.99994 48 3.99994C56.3464 3.99994 62.0477 8.39569 67.5615 12.6469C72.4072 16.3834 77.4037 20.2352 83.9932 20.8993C83.6777 65.5009 72.1249 77.6199 48 91.6875Z" fill="#3EC283"/>
<path d="M24.3693 22.8415C23.8544 21.8641 22.645 21.4891 21.6676 22.0037C21.4192 22.1346 21.1672 22.2631 20.9144 22.3878C19.9235 22.8756 19.5157 24.0745 20.0034 25.0656C20.3514 25.7727 21.0612 26.1824 21.7992 26.1824C22.0957 26.1824 22.3972 26.1164 22.6812 25.9765C22.9668 25.8359 23.2509 25.6909 23.5312 25.5434C24.5088 25.0283 24.8838 23.8189 24.3693 22.8415Z" fill="#3EC283"/>
<path d="M77.1719 38.5248C77.2333 38.5302 77.2946 38.533 77.3551 38.533C78.3778 38.533 79.2506 37.7527 79.3445 36.7139C79.3679 36.4585 79.3901 36.202 79.4116 35.9467C79.505 34.8459 78.6883 33.8782 77.5874 33.7848C76.4883 33.6901 75.5189 34.5082 75.4259 35.609C75.4049 35.8561 75.3834 36.1042 75.3607 36.3517C75.2611 37.4519 76.0719 38.4249 77.1719 38.5248Z" fill="#3EC283"/>
<path d="M28.3222 22.149C28.7276 22.149 29.1371 22.026 29.4911 21.7701C30.6497 20.9336 31.7782 20.0747 32.8693 19.2435C37.9744 15.3566 42.3831 11.9996 47.9998 11.9996C49.1044 11.9996 49.9999 11.1041 49.9999 9.99957C49.9999 8.89539 49.1044 7.99951 47.9998 7.99951C41.0334 7.99951 35.8907 11.9151 30.4461 16.0611C29.3747 16.8771 28.2669 17.7204 27.1496 18.5271C26.2538 19.1739 26.0524 20.4238 26.6989 21.3193C27.0898 21.8612 27.7016 22.149 28.3222 22.149Z" fill="#3EC283"/>
<path d="M47.9999 82.3667C42.8815 79.2109 36.6994 74.9732 32.0641 69.5083C31.3497 68.6657 30.0874 68.5624 29.2452 69.2764C28.4026 69.9907 28.2989 71.253 29.0133 72.0956C34.3386 78.3748 41.4032 83.0499 46.9626 86.4216C46.9727 86.4274 46.9836 86.4317 46.9937 86.4375C47.0417 86.4652 47.0909 86.4894 47.1409 86.5132C47.173 86.5284 47.2049 86.5453 47.2373 86.5586C47.2823 86.577 47.3279 86.5914 47.3742 86.6066C47.4128 86.6194 47.4509 86.634 47.4899 86.6443C47.5317 86.6554 47.5742 86.6619 47.6164 86.6702C47.659 86.6788 47.7016 86.6893 47.7447 86.6947C47.8053 86.7026 47.866 86.7045 47.9275 86.7069C47.9509 86.7077 47.9744 86.7116 47.9978 86.7116C47.9986 86.7116 47.9993 86.7116 47.9999 86.7116C48.0006 86.7116 48.0016 86.7116 48.0019 86.7116C48.0254 86.7116 48.0488 86.7077 48.0722 86.7069C48.1336 86.7045 48.1949 86.7028 48.2554 86.6947C48.298 86.6893 48.3398 86.6788 48.382 86.6706C48.4249 86.6623 48.4681 86.6557 48.5102 86.6443C48.5489 86.6342 48.5869 86.6197 48.625 86.6072C48.6709 86.592 48.7172 86.5776 48.7626 86.5588C48.7951 86.5457 48.8266 86.5288 48.8586 86.5134C48.9087 86.4896 48.9582 86.4654 49.0058 86.4377C49.0165 86.4319 49.0268 86.4276 49.0369 86.4217C54.5963 83.0503 61.6607 78.3754 66.9863 72.0954C73.0591 64.9327 76.8869 55.2399 78.688 42.4627C78.8421 41.3689 78.0805 40.3577 76.9868 40.2034C75.8918 40.0494 74.8814 40.8109 74.7271 41.9046C73.0345 53.9104 69.5048 62.94 63.9355 69.5089C59.3007 74.9732 53.1192 79.2109 47.9999 82.3667Z" fill="#3EC283"/>
<path d="M60.908 25.0209L40.0439 45.8848L35.0931 40.9335C33.8686 39.7093 32.2362 39.035 30.4964 39.035C28.7562 39.035 27.1238 39.7093 25.8987 40.9338C23.365 43.469 23.365 47.5933 25.8995 50.1277L35.4614 59.6883L35.5443 59.7699C35.5565 59.7817 35.5688 59.7933 35.581 59.8051L35.665 59.8833C35.6798 59.897 35.6946 59.9107 35.71 59.9238L35.7961 59.9992C35.8092 60.011 35.8227 60.0223 35.8362 60.0335L35.9234 60.1057C35.9331 60.1143 35.9435 60.122 35.9534 60.1303L36.0421 60.2013C36.0584 60.2143 36.0749 60.2272 36.0918 60.2396L36.1827 60.308C36.1955 60.3174 36.208 60.3268 36.221 60.3358L36.3123 60.401C36.326 60.4108 36.3396 60.4201 36.3533 60.4293L36.4463 60.4923C36.4611 60.5021 36.476 60.512 36.491 60.5216L36.5851 60.5818C36.5978 60.5896 36.6104 60.5977 36.6233 60.6052L36.7188 60.663C36.7315 60.6708 36.7441 60.6785 36.757 60.686L36.853 60.741C36.8718 60.752 36.8907 60.7625 36.9096 60.7726L37.0073 60.8246C37.0175 60.83 37.0278 60.8356 37.0381 60.8405L37.1365 60.891C37.1538 60.9 37.1714 60.9086 37.1888 60.9172L37.2884 60.9645C37.3025 60.971 37.3165 60.9772 37.3306 60.9841L37.3814 61.0068C37.417 61.0241 37.4532 61.04 37.4903 61.0552L37.592 61.0966C37.6013 61.1006 37.6103 61.104 37.6197 61.1077L37.7217 61.1475C37.7369 61.1536 37.7525 61.1596 37.768 61.1655L37.8717 61.2031C37.888 61.209 37.9049 61.215 37.9218 61.2204L37.9718 61.2373C38.0058 61.2498 38.0403 61.2611 38.0755 61.2716L38.1796 61.3033C38.1944 61.3074 38.2092 61.3123 38.2242 61.316L38.3292 61.3455C38.3436 61.3494 38.3583 61.3533 38.3731 61.3573L38.4788 61.3843C38.4929 61.3878 38.5075 61.3912 38.5218 61.395L38.6275 61.4191C38.6423 61.4227 38.6575 61.4261 38.6729 61.4293L38.7786 61.451C38.7991 61.4553 38.8193 61.4589 38.8396 61.4628L38.8919 61.4718C38.923 61.478 38.9547 61.484 38.987 61.4887L39.0936 61.505C39.1096 61.5078 39.1257 61.5097 39.1416 61.512L39.2491 61.5256C39.2643 61.5277 39.2798 61.5296 39.295 61.5311L39.3458 61.5365C39.3794 61.5408 39.413 61.5448 39.4471 61.5476L39.5553 61.5566C39.5757 61.5583 39.596 61.5598 39.6162 61.5605L39.667 61.5633C39.7002 61.5661 39.7338 61.568 39.7673 61.5688L39.8755 61.5723C39.8866 61.5727 39.8969 61.5727 39.908 61.5731L40.0154 61.5746C40.0251 61.5746 40.0345 61.5746 40.0445 61.5746C40.0542 61.5746 40.0636 61.5746 40.0735 61.5746L40.1817 61.5731C40.1928 61.5727 40.2031 61.5727 40.2141 61.5723L40.3227 61.5688C40.3563 61.568 40.3898 61.566 40.423 61.5633L40.4738 61.5605C40.4946 61.5594 40.5153 61.5581 40.5361 61.5564L40.6435 61.5474C40.6771 61.5446 40.7103 61.5412 40.7435 61.5367L40.7943 61.5313C40.8091 61.5298 40.8239 61.5281 40.8385 61.5262L40.9467 61.5121C40.9636 61.5101 40.9803 61.5078 40.9968 61.5052L41.1035 61.4889C41.1363 61.4838 41.1691 61.4778 41.2011 61.4713L41.2523 61.4623C41.2724 61.4591 41.2921 61.4553 41.3118 61.4508L41.4171 61.4291C41.4308 61.4263 41.4445 61.4236 41.4582 61.4205L41.5649 61.3959C41.5818 61.392 41.5985 61.388 41.6153 61.3837L41.7203 61.3567C41.7344 61.3531 41.7481 61.3494 41.7618 61.3453L41.8664 61.316C41.8808 61.3121 41.8956 61.3078 41.9097 61.3035L42.014 61.2718C42.0468 61.2616 42.0796 61.251 42.1116 61.2393L42.1632 61.2225C42.1816 61.2163 42.2 61.2099 42.2181 61.2033L42.3218 61.1656C42.3374 61.1598 42.353 61.1538 42.3681 61.1476L42.4701 61.1079C42.4816 61.1036 42.4928 61.0989 42.5041 61.0942L42.605 61.0528C42.6374 61.0396 42.6693 61.025 42.7008 61.0102L42.7527 60.9871C42.7696 60.9798 42.7863 60.972 42.8031 60.9641L42.9023 60.9168C42.9155 60.9106 42.929 60.9039 42.9421 60.8971L43.0405 60.8475C43.0722 60.8315 43.1037 60.8146 43.1343 60.797L43.1855 60.7696C43.1999 60.7618 43.2145 60.7537 43.2284 60.7455L43.3251 60.6905C43.3407 60.6815 43.3559 60.6725 43.3711 60.6631L43.4665 60.6054C43.4813 60.5964 43.4961 60.587 43.5111 60.5776L43.6049 60.5175C43.6156 60.5109 43.6259 60.5038 43.636 60.4966L43.7298 60.434C43.7457 60.423 43.7618 60.4123 43.7774 60.4008L43.8687 60.3356C43.8843 60.3245 43.8998 60.3135 43.915 60.3016L44.0052 60.2332C44.0163 60.2246 44.027 60.2163 44.038 60.2079L44.1267 60.1376C44.1501 60.1192 44.173 60.0999 44.1959 60.0806L44.2463 60.0388C44.264 60.0243 44.2816 60.0095 44.2983 59.9945L44.384 59.9188C44.3954 59.909 44.4061 59.8991 44.4171 59.8891L44.5015 59.811C44.5141 59.7995 44.5261 59.7879 44.5383 59.7761L44.6211 59.6956C44.6395 59.678 44.6571 59.66 44.6744 59.642L70.1031 34.2136C72.6372 31.6784 72.6365 27.5542 70.1016 25.0205C68.8775 23.7963 67.2451 23.1221 65.5053 23.1221C63.7651 23.1223 62.1325 23.7965 60.908 25.0209ZM67.2736 31.3858L41.8122 56.8464C41.8081 56.8511 41.8032 56.8554 41.7991 56.8595L41.6131 57.0251C41.611 57.0268 41.609 57.0285 41.6065 57.0305L41.3688 57.1989L41.0309 57.3742C41.0301 57.3746 41.0288 57.375 41.0281 57.3753L40.8042 57.4573C40.8018 57.458 40.7995 57.459 40.7973 57.4597L40.4519 57.5405C40.448 57.5413 40.4436 57.542 40.4393 57.543L40.2663 57.5636C40.2621 57.5643 40.2576 57.5647 40.2537 57.5653L40.1556 57.5711C40.1515 57.5711 40.1474 57.5715 40.1431 57.5718L40.0439 57.5739L39.9811 57.5728L39.9455 57.572C39.9413 57.5716 39.9368 57.5713 39.9327 57.5713L39.8328 57.5655C39.8292 57.5651 39.8255 57.5647 39.8213 57.5638L39.6492 57.5431C39.6441 57.5424 39.6395 57.5411 39.6344 57.5403L39.2901 57.4599C39.2898 57.4599 39.289 57.4595 39.2885 57.4595L39.0921 57.3885L38.7164 57.197L38.3706 56.9368L28.7275 47.2989C27.7529 46.3239 27.7529 44.7367 28.7275 43.7617C29.1963 43.293 29.8244 43.0348 30.4964 43.0348C31.1678 43.0348 31.796 43.293 32.2649 43.7613L38.6298 50.127C39.0048 50.5023 39.5135 50.7129 40.0437 50.7129C40.574 50.7129 41.0826 50.5023 41.4582 50.1273L63.737 27.8491C64.2057 27.3804 64.8338 27.1222 65.5049 27.1222C66.1763 27.1222 66.8041 27.3804 67.2734 27.8495C68.2478 28.8243 68.2482 30.4108 67.2736 31.3858Z" fill="#3EC283"/>
</svg>
