<svg width="90" height="90" viewBox="0 0 90 90" fill="none" xmlns="http://www.w3.org/2000/svg">
<g clip-path="url(#clip0)">
<path d="M89.1132 0.23103C88.5649 -0.0818608 87.8906 -0.0765873 87.3474 0.244741L55.1348 19.2931C54.2992 19.7872 54.0223 20.8651 54.5164 21.7008C55.0104 22.5363 56.0883 22.8131 56.9241 22.3192L80.0362 8.65236L36.9863 53.3207L15.5747 46.77L43.5178 30.2466C44.3535 29.7523 44.6303 28.6744 44.1362 27.8387C43.6422 27.0032 42.5642 26.726 41.7285 27.2203L10.3552 45.7721C9.75583 46.1266 9.42202 46.8015 9.50446 47.4932C9.5869 48.1849 10.0698 48.7625 10.7356 48.9662L36.3064 56.7892L47.5875 77.3227C47.5993 77.344 47.6114 77.3619 47.6239 77.3779C47.8121 77.6918 48.0943 77.9483 48.4462 78.0963C48.6664 78.189 48.8979 78.2341 49.1278 78.2341C49.5784 78.2341 50.0219 78.0608 50.3567 77.7333L63.3283 65.056L87.7278 72.5207C87.8966 72.5722 88.0697 72.5977 88.242 72.5977C88.6139 72.5977 88.9813 72.4796 89.2875 72.253C89.7356 71.9215 90 71.3971 90 70.8399V1.75787C90 1.12664 89.6614 0.543745 89.1132 0.23103ZM47.6833 57.8725C47.4797 58.1666 47.3706 58.5157 47.3706 58.8734V69.6261L39.6673 55.6049L73.755 20.236L47.6833 57.8725ZM50.8862 72.3005V61.2496L59.4977 63.8842L50.8862 72.3005ZM86.4844 68.4639L51.9435 57.8966L86.4844 8.03396V68.4639Z" fill="#3EC283"/>
<path d="M28.9025 61.0976C28.2159 60.4112 27.1032 60.4112 26.4164 61.0976L10.0069 77.5071C9.32046 78.1935 9.32046 79.3066 10.0069 79.9932C10.3504 80.3363 10.8002 80.5079 11.25 80.5079C11.6998 80.5079 12.1497 80.3363 12.493 79.993L28.9025 63.5835C29.5889 62.8972 29.5889 61.7842 28.9025 61.0976Z" fill="#3EC283"/>
<path d="M7.04369 82.9562C6.35708 82.2701 5.24439 82.2701 4.55779 82.9564L0.514819 86.9993C-0.171606 87.6858 -0.171606 88.7988 0.514819 89.4854C0.85812 89.8285 1.30794 90.0001 1.75777 90.0001C2.20759 90.0001 2.65742 89.8284 3.00072 89.4852L7.04369 85.4423C7.73011 84.7558 7.73011 83.6428 7.04369 82.9562Z" fill="#3EC283"/>
<path d="M25.075 86.8957C24.7482 86.5687 24.2947 86.3806 23.8324 86.3806C23.3682 86.3806 22.9166 86.5687 22.5896 86.8957C22.2627 87.2226 22.0746 87.6744 22.0746 88.1384C22.0746 88.6007 22.2625 89.0542 22.5896 89.3812C22.9166 89.7082 23.3701 89.8962 23.8324 89.8962C24.2947 89.8962 24.7482 89.7082 25.075 89.3812C25.4019 89.0542 25.5902 88.6007 25.5902 88.1384C25.5902 87.6744 25.4021 87.2226 25.075 86.8957Z" fill="#3EC283"/>
<path d="M38.1536 73.8166C37.4675 73.1302 36.3548 73.1302 35.6677 73.8166L26.976 82.5081C26.2896 83.1945 26.2896 84.3076 26.976 84.994C27.3193 85.3373 27.7691 85.5089 28.2189 85.5089C28.6688 85.5089 29.1186 85.3371 29.4619 84.994L38.1536 76.3025C38.84 75.6161 38.84 74.503 38.1536 73.8166Z" fill="#3EC283"/>
<path d="M68.1511 73.1495C67.4645 72.4632 66.3518 72.4632 65.6652 73.1495L56.95 81.8647C56.2636 82.5511 56.2636 83.6641 56.95 84.3507C57.2933 84.6939 57.7431 84.8656 58.193 84.8656C58.6428 84.8656 59.0926 84.6939 59.4359 84.3507L68.1511 75.6355C68.8376 74.9491 68.8376 73.8361 68.1511 73.1495Z" fill="#3EC283"/>
<path d="M49.8338 23.9608C49.5069 23.6339 49.0534 23.4458 48.5911 23.4458C48.1288 23.4458 47.6752 23.6339 47.3483 23.9608C47.0215 24.2878 46.8333 24.7413 46.8333 25.2054C46.8333 25.6677 47.0213 26.1194 47.3483 26.4464C47.6752 26.7751 48.1288 26.9614 48.5911 26.9614C49.0534 26.9614 49.5069 26.7751 49.8338 26.4464C50.1606 26.1194 50.3489 25.6677 50.3489 25.2054C50.3489 24.7413 50.1608 24.2878 49.8338 23.9608Z" fill="#3EC283"/>
</g>
<defs>
<clipPath id="clip0">
<rect width="90" height="90" fill="white"/>
</clipPath>
</defs>
</svg>
