<svg width="219" height="44" viewBox="0 0 219 44" fill="none" xmlns="http://www.w3.org/2000/svg">
<path d="M21.9 43.7C9.8 43.7 0 33.9 0 21.9C0 9.9 9.8 0 21.9 0C25.8 0 29.6 1 32.9 3C33.6 3.4 33.9 4.3 33.4 5.1C33 5.8 32.1 6.1 31.3 5.6C28.5 3.9 25.2 3 21.9 3C11.5 3 3 11.5 3 21.9C3 32.3 11.5 40.8 21.9 40.8C32.3 40.8 40.8 32.3 40.8 21.9C40.8 18.8 40 15.7 38.6 13C38.5 12.8 38.4 12.7 38.3 12.5C37.9 11.8 38.1 10.9 38.9 10.5C39.6 10.1 40.5 10.3 40.9 11.1C41 11.3 41.1 11.5 41.2 11.7C42.9 14.8 43.8 18.4 43.8 22C43.7 33.9 33.9 43.7 21.9 43.7Z" fill="#3EC283"/>
<path d="M56.8 30.9C56.8 31.4 56.3 31.9 55.8 31.9H54.5C54 31.9 53.5 31.4 53.5 30.9V14.2C53.5 13.7 54 13.2 54.5 13.2H55.8C56.3 13.2 56.8 13.7 56.8 14.2V22L63.6 13.8C63.9 13.4 64.4 13.2 64.9 13.2H66.1C66.6 13.2 66.9 13.6 66.9 14.1C66.9 14.3 66.8 14.5 66.7 14.7L60.4 21.9L67.3 30.2999C67.5 30.5 67.5 30.7 67.5 30.9C67.5 31.4 67.1 31.7999 66.6 31.7999H65.2C64.7 31.7999 64.2 31.6 63.9 31.2L56.8 22.2V30.9Z" fill="black"/>
<path d="M85 19.2C85 22.4 82.6 25.2 78.2 25.2C77.6 25.2 76.6 25.2 75.8 25.1V30.8C75.8 31.3 75.3 31.8 74.8 31.8H73.5C73 31.8 72.5 31.3 72.5 30.8V14.2C72.5 13.7 72.9 13.2 73.5 13.2C74.8 13.2 76.8 13.1 77.8 13.1C83.2 13.2 85 16.1 85 19.2ZM75.7 22C76.5 22.1 77.3 22.1 78 22.1C79.9 22.1 81.5 21.2 81.5 19.1C81.5 17.2 80.3 16.2 78.1 16.2C77.4 16.2 76.6 16.2 75.8 16.3V22H75.7Z" fill="black"/>
<path d="M101.1 30.9C101.1 31.4 100.6 31.9 100.1 31.9H91C90.5 31.9 90 31.4 90 30.9V14.2C90 13.7 90.5 13.2 91 13.2H99.8C100.3 13.2 100.8 13.7 100.8 14.2V15.3C100.8 15.8 100.3 16.3 99.8 16.3H93.3V20.9H99C99.5 20.9 100 21.4 100 21.9V23C100 23.5 99.5 24 99 24H93.3V28.8H100.1C100.6 28.8 101.1 29.2999 101.1 29.7999V30.9Z" fill="black"/>
<path d="M120 13.3C120.5 13.3 121 13.8 121 14.3V28.9H122.5C123 28.9 123.5 29.4 123.5 29.9V34.3C123.5 34.8 123 35.3 122.5 35.3H121.4C120.9 35.3 120.4 34.8 120.4 34.3V32H107.4V34.3C107.4 34.8 106.9 35.3 106.4 35.3H105.3C104.8 35.3 104.3 34.8 104.3 34.3V29.9C104.3 29.4 104.8 28.9 105.3 28.9H106.3C107.1 27.9 108.8 24 109.2 17.1L109.3 14.4C109.3 13.8 109.8 13.4 110.3 13.4H120V13.3ZM117.7 16.3H112.6L112.3 19.5C112 24.3 110.6 27.9 110 28.7H117.8V16.3H117.7Z" fill="black"/>
<path d="M141.7 31.9C141.2 31.9 140.7 31.4 140.7 30.9V18.7L131.4 31.3C131.1 31.7 130.7 31.9 130.2 31.9H129C128.5 31.9 128 31.4 128 30.9V14.2C128 13.7 128.5 13.2 129 13.2H130.3C130.8 13.2 131.3 13.7 131.3 14.2V26.4L140.6 13.8C140.9 13.4 141.3 13.1 141.8 13.1H143C143.5 13.1 144 13.6 144 14.1V30.7C144 31.2 143.5 31.7 143 31.7H141.7V31.9Z" fill="black"/>
<path d="M155.2 31.9C154.7 31.9 154.2 31.4 154.2 30.9V16.3H149.2C148.7 16.3 148.2 15.8 148.2 15.3V14.2C148.2 13.7 148.7 13.2 149.2 13.2H162.6C163.1 13.2 163.6 13.7 163.6 14.2V15.3C163.6 15.8 163.1 16.3 162.6 16.3H157.6V30.9C157.6 31.4 157.1 31.9 156.6 31.9H155.2Z" fill="black"/>
<path d="M167.7 14.2C167.7 13.7 168.2 13.2 168.7 13.2H170C170.5 13.2 171 13.7 171 14.2V19.6C171.8 19.5 172.5 19.5 173.1 19.5C177.7 19.5 179.9 21.9 179.9 25.5C179.9 29.4 177.1 31.9 172.4 31.9C171.1 31.9 169.8 31.9 168.8 31.7999C168.2 31.7999 167.8 31.2999 167.8 30.7999V14.2H167.7ZM170.9 28.8C171.5 28.8 172 28.9 172.7 28.9C175.1 28.9 176.4 27.8 176.4 25.6C176.4 23.6 175.1 22.6 172.8 22.6C172.3 22.6 171.7 22.7 171 22.7V28.8H170.9ZM185.5 30.9C185.5 31.4 185 31.9 184.5 31.9H183.2C182.7 31.9 182.2 31.4 182.2 30.9V14.2C182.2 13.7 182.7 13.2 183.2 13.2H184.5C185 13.2 185.5 13.7 185.5 14.2V30.9Z" fill="black"/>
<path d="M201.9 30.9C201.9 31.4 201.4 31.9 200.9 31.9H191C190.5 31.9 190 31.4 190 30.9V30.3C190 29.7 190.3 29.2 190.9 28.7C194 25.8 197.9 21.8 197.9 18.5C197.9 17 197.1 16.1 195.5 16.1C194.4 16.1 193.7 16.6 193 17.6C192.8 17.9 192.5 18.1 192.1 18.1C191.9 18.1 191.8 18 191.6 18L190.9 17.6C190.6 17.4 190.4 17.1 190.4 16.7C190.4 16.6 190.4 16.4 190.5 16.3C191.7 14 193.3 13 195.9 13C199.4 13 201.2 15.4 201.2 17.9C201.2 23.1 195.6 27.8 194.2 29H200.9C201.4 29 201.9 29.5 201.9 30V30.9Z" fill="#3EC283"/>
<path d="M216.4 30.9C216.4 31.4 215.9 31.9 215.4 31.9H214.3C213.8 31.9 213.3 31.4 213.3 30.9V27.6H205.7C205.2 27.6 204.7 27.1 204.7 26.7V26.2C204.7 25.5 204.9 25.1 205.3 24.5L211.4 14.2C211.7 13.7 212.2 13.3 212.8 13.3H213.9C214.4 13.3 214.8 13.7 214.8 14.1C214.8 14.2 214.8 14.4 214.7 14.6L208.8 24.5H213.3V20.9C213.3 20.4 213.8 19.9 214.3 19.9H215.4C215.9 19.9 216.4 20.4 216.4 20.9V24.5H217.8C218.3 24.5 218.8 25 218.8 25.5V26.6C218.8 27.1 218.3 27.6 217.8 27.6H216.4V30.9Z" fill="#3EC283"/>
<path d="M21.7996 23.9C21.3996 23.9 20.9996 23.8 20.6996 23.5L13.2996 16.1C12.6996 15.5 12.6996 14.6 13.2996 14C13.8996 13.4 14.7996 13.4 15.3996 14L22.7996 21.4C23.3996 22 23.3996 22.9 22.7996 23.5C22.5996 23.8 22.1996 23.9 21.7996 23.9Z" fill="#3EC283"/>
<path d="M21.8996 24C21.4996 24 21.0996 23.9 20.7996 23.6C20.1996 23 20.1996 22.1 20.7996 21.5L39.5996 2.60002C40.1996 2.00002 41.0996 2.00002 41.6996 2.60002C42.2996 3.20002 42.2996 4.10002 41.6996 4.70002L22.8996 23.5C22.5996 23.8 22.1996 24 21.8996 24Z" fill="#3EC283"/>
</svg>
