<svg width="18" height="24" viewBox="0 0 18 24" fill="none" xmlns="http://www.w3.org/2000/svg">
<path d="M17.9487 14.0516C17.6738 10.4723 16.0073 8.22926 14.5371 6.24992C13.1758 4.41748 12 2.83508 12 0.500795C12 0.313295 11.895 0.14192 11.7285 0.0559985C11.5615 -0.030439 11.3608 -0.0162828 11.209 0.094061C9.00098 1.67403 7.1587 4.33695 6.51515 6.87776C6.06839 8.64669 6.00928 10.6353 6.00098 11.9487C3.96192 11.5132 3.50002 8.46312 3.49514 8.42989C3.47217 8.27169 3.37551 8.13401 3.23489 8.05883C3.09281 7.98462 2.9258 7.97923 2.78175 8.05053C2.67483 8.10228 0.157219 9.3815 0.0107342 14.489C0.000468576 14.659 0 14.8294 0 14.9998C0 19.9618 4.03758 23.9992 9 23.9992C9.00684 23.9997 9.01415 24.0006 9.02001 23.9992C9.02198 23.9992 9.0239 23.9992 9.02634 23.9992C13.9766 23.985 18 19.9531 18 14.9998C18 14.7503 17.9487 14.0516 17.9487 14.0516ZM9 22.9992C7.34569 22.9992 6 21.5658 6 19.8037C6 19.7436 5.99953 19.6831 6.00389 19.6089C6.0239 18.8658 6.16505 18.3585 6.31983 18.0211C6.60989 18.6441 7.12842 19.2168 7.97072 19.2168C8.24709 19.2168 8.47073 18.9932 8.47073 18.7168C8.47073 18.005 8.4854 17.1837 8.66264 16.4426C8.82037 15.7854 9.1973 15.0862 9.67486 14.5257C9.88725 15.2532 10.3013 15.842 10.7056 16.4167C11.2843 17.2389 11.8824 18.089 11.9874 19.5386C11.9937 19.6245 12.0001 19.7109 12.0001 19.8037C12 21.5657 10.6543 22.9992 9 22.9992Z" fill="#3EC283"/>
</svg>
